<?xml version="1.0" standalone="no"?>
<!DOCTYPE svg PUBLIC "-//W3C//DTD SVG 20010904//EN"
 "http://www.w3.org/TR/2001/REC-SVG-20010904/DTD/svg10.dtd">
<svg version="1.0" xmlns="http://www.w3.org/2000/svg"
 width="3840.000000pt" height="2160.000000pt" viewBox="0 0 3840.000000 2160.000000"
 preserveAspectRatio="xMidYMid meet">

<g transform="translate(0.000000,2160.000000) scale(0.100000,-0.100000)"
fill="#000000" stroke="none">
<path d="M16995 21558 c-11 -88 -115 -1104 -115 -1128 1 -14 38 67 84 180 162
401 306 699 418 870 35 52 66 101 71 108 6 9 -1 12 -26 12 -32 0 -38 -6 -85
-77 -91 -141 -236 -427 -334 -661 -17 -40 -32 -71 -33 -70 -1 2 1 32 5 68 5
36 11 103 15 150 3 47 17 190 30 318 31 288 31 272 1 272 -22 0 -26 -6 -31
-42z"/>
<path d="M19480 21586 c0 -7 -9 -128 -20 -267 -10 -140 -22 -301 -25 -359 -2
-58 -10 -206 -17 -330 -17 -306 -17 -1772 0 -2104 7 -137 15 -295 17 -350 9
-187 37 -621 43 -675 l7 -55 104 265 c128 325 131 332 136 327 3 -2 21 -83 40
-179 20 -96 38 -182 41 -191 4 -12 -7 -23 -38 -39 -147 -75 -308 -254 -453
-503 -63 -109 -69 -116 -98 -116 -49 -1 -108 -32 -154 -83 -61 -66 -192 -334
-207 -423 -10 -59 16 -169 62 -260 l40 -79 -24 -140 c-33 -197 -73 -553 -81
-716 l-6 -139 -64 0 c-135 0 -179 -46 -224 -238 -30 -124 -28 -207 4 -274 33
-66 119 -154 214 -216 70 -46 72 -48 78 -97 36 -292 121 -622 239 -930 l43
-115 -26 -6 c-211 -45 -211 -208 -1 -532 73 -111 100 -128 195 -118 33 3 69 8
81 12 19 5 26 -7 74 -128 62 -155 270 -643 329 -770 l40 -87 -52 -14 c-29 -8
-162 -45 -297 -82 -1067 -292 -2018 -604 -2945 -967 -154 -60 -292 -117 -675
-278 -311 -131 -1053 -490 -1395 -675 -627 -340 -1261 -765 -1557 -1043 -57
-55 -68 -70 -78 -114 -14 -69 -38 -229 -44 -308 -4 -36 -10 -112 -16 -170 -32
-367 -38 -1260 -11 -1770 5 -96 12 -247 16 -335 19 -498 112 -1638 206 -2520
21 -203 41 -395 44 -425 3 -30 10 -93 15 -140 8 -66 62 -527 95 -810 2 -19 7
-60 10 -90 3 -30 30 -244 60 -475 30 -231 57 -442 60 -470 6 -61 112 -823 126
-917 l11 -68 12499 0 12499 0 0 330 0 330 -24 0 c-12 0 -79 -4 -147 -10 -475
-36 -1378 -52 -2289 -40 -838 12 -1309 28 -1890 65 -124 8 -306 19 -405 25
-99 6 -283 19 -409 30 -126 11 -233 20 -237 20 -7 0 -15 38 -24 125 -3 28 -16
127 -30 220 -13 94 -26 195 -30 225 -4 30 -15 115 -26 188 -26 181 -30 166 39
158 31 -3 86 -8 122 -11 36 -3 137 -12 225 -20 924 -84 1772 -84 2475 0 69 9
145 18 170 21 25 3 58 7 74 11 l29 5 -6 -188 c-6 -223 -3 -210 -161 -584 -20
-46 -36 -88 -36 -93 0 -21 246 139 390 253 145 115 350 323 448 454 45 61 110
165 144 233 l63 123 78 26 c76 25 86 35 68 64 -8 12 -32 7 -153 -33 -292 -96
-668 -177 -1048 -227 -497 -64 -1306 -86 -1905 -50 -88 5 -212 12 -275 15
-225 11 -603 47 -945 91 -110 13 -218 27 -240 30 -89 11 -386 57 -484 75 -135
25 -133 25 -129 -8 3 -29 1 -29 263 -72 l70 -12 30 -61 c172 -350 484 -755
699 -908 38 -28 45 -36 29 -38 -11 -2 -152 11 -314 27 -162 17 -323 33 -359
36 -79 7 -580 68 -780 95 -80 10 -170 22 -200 25 -30 3 -221 31 -425 61 -203
31 -386 58 -405 60 -19 3 -181 30 -360 60 -179 30 -341 57 -360 60 -93 15
-663 123 -975 185 -993 199 -1844 402 -2920 695 -437 119 -392 100 -473 202
-126 159 -215 285 -343 482 -620 957 -1223 2362 -1762 4105 -98 316 -101 326
-198 670 -49 176 -107 374 -129 440 -72 221 -187 868 -294 1660 -66 478 -173
1416 -201 1740 -9 112 -15 180 -40 450 -41 452 -74 852 -85 1015 -5 85 -21
308 -34 495 -35 475 -74 1071 -86 1325 -5 118 -19 379 -30 580 -40 730 -83
1712 -96 2178 l-6 242 40 63 c62 94 111 199 152 327 29 90 113 305 124 317 1
1 74 -9 162 -22 209 -32 697 -100 899 -125 244 -31 987 -118 1105 -130 58 -6
256 -26 440 -45 353 -36 821 -81 930 -89 36 -3 250 -21 475 -40 226 -20 460
-40 520 -45 107 -8 128 -15 800 -241 2510 -843 3064 -1030 3511 -1180 275 -93
554 -193 620 -222 141 -65 323 -166 488 -272 120 -76 152 -89 162 -61 13 34
-102 179 -301 381 l-100 101 -200 101 c-249 124 -772 364 -1327 608 -233 102
-457 201 -498 219 -163 72 -634 276 -785 340 -145 62 -214 97 -160 82 11 -3
90 -9 175 -12 85 -3 283 -12 440 -20 925 -47 1964 -88 2540 -100 146 -3 456
-10 690 -15 1109 -25 2054 -32 3415 -26 781 3 1558 9 1728 12 l307 7 0 775 0
775 -47 -6 c-498 -64 -2098 -125 -3328 -128 -533 -1 -780 5 -1915 46 -223 8
-551 19 -730 25 -503 16 -1526 65 -2185 105 -132 8 -292 17 -355 20 -132 6
-620 40 -790 55 -63 5 -182 14 -265 20 -82 6 -204 17 -270 25 -66 7 -154 17
-195 20 -146 12 -438 47 -680 81 -135 19 -263 37 -285 40 -191 26 -585 118
-754 176 -143 49 -388 161 -490 225 -89 55 -211 173 -268 258 -93 139 -163
320 -188 484 -12 83 -35 715 -35 964 l0 77 -1168 0 -1169 0 -60 -147 c-189
-458 -466 -1422 -738 -2573 -37 -156 -57 -216 -129 -385 l-85 -200 4 65 c3 36
7 173 10 305 7 337 38 811 90 1375 14 146 27 294 31 330 18 202 131 1100 151
1203 l6 27 -1077 0 -1076 0 -16 -37 c-94 -225 -284 -891 -504 -1773 -146 -584
-375 -1544 -392 -1645 -5 -24 -14 173 -29 615 -7 210 -9 601 -6 1050 5 691 10
833 42 1340 9 129 18 271 20 315 3 44 8 92 11 108 5 25 3 27 -25 27 -20 0 -31
-5 -31 -14z m839 -2587 c67 -175 194 -302 343 -343 l64 -17 22 -262 c13 -144
38 -419 57 -612 19 -192 37 -383 40 -423 l7 -74 -23 13 c-13 6 -46 26 -74 44
-27 18 -93 55 -146 83 l-95 52 -63 217 c-216 756 -226 786 -251 805 -28 20
-158 48 -226 48 -24 0 -44 4 -44 8 0 8 46 115 268 624 l46 108 27 -108 c15
-59 36 -132 48 -163z m607 -408 c134 -29 381 -75 454 -85 147 -20 576 -89 579
-92 5 -4 21 -443 41 -1109 29 -975 120 -2740 200 -3880 61 -876 76 -1065 135
-1695 13 -146 27 -296 30 -335 8 -105 32 -335 70 -675 19 -168 37 -332 40
-365 15 -155 105 -842 151 -1150 73 -493 199 -1168 268 -1442 14 -56 26 -105
26 -110 0 -4 -41 64 -91 152 -64 111 -96 181 -109 231 -54 208 -398 1274 -411
1274 -17 0 -31 -87 -25 -155 6 -61 42 -411 91 -875 8 -80 15 -154 14 -165 -3
-80 -257 932 -393 1570 -171 796 -416 2190 -546 3100 -88 617 -169 1211 -225
1650 -32 253 -122 991 -135 1110 -41 367 -130 1201 -139 1295 -6 63 -31 315
-56 560 -24 245 -46 474 -49 510 -3 36 -8 99 -11 140 -4 41 -16 186 -28 323
-13 136 -22 247 -21 247 0 0 63 -13 140 -29z m1249 -200 l40 -7 -3 -154 c-3
-135 -7 -165 -29 -230 -26 -76 -86 -202 -121 -253 l-19 -28 -7 243 c-3 134 -9
290 -13 346 l-6 104 59 -7 c32 -4 77 -10 99 -14z m-2015 -830 c286 -121 700
-346 700 -381 0 -10 7 -82 15 -161 9 -79 18 -179 21 -222 4 -44 25 -250 48
-458 23 -208 39 -379 36 -379 -10 0 -95 61 -320 230 -241 181 -439 313 -501
336 -109 39 -258 36 -375 -7 -51 -19 -53 -21 -42 -45 14 -29 10 -29 83 -3 33
12 96 24 140 26 l80 5 44 -178 c24 -99 119 -485 211 -859 92 -374 205 -834
250 -1022 l83 -342 -41 -138 c-23 -76 -57 -203 -76 -283 -61 -261 -94 -403
-121 -530 -14 -69 -35 -165 -46 -213 -10 -49 -19 -100 -19 -115 0 -26 86 -269
101 -286 5 -6 18 -5 33 2 l24 11 -50 133 c-34 93 -48 142 -44 163 42 244 244
1097 264 1117 8 8 10 2 102 -377 34 -137 97 -396 141 -575 125 -509 116 -445
83 -558 -21 -72 -29 -119 -29 -182 l0 -85 101 -125 101 -125 87 -360 c48 -198
107 -441 131 -540 24 -99 89 -367 145 -595 56 -228 119 -489 141 -580 22 -91
42 -171 44 -178 9 -24 -38 9 -113 82 -128 123 -330 406 -512 716 -41 69 -75
127 -77 129 -1 2 -14 -4 -27 -13 l-25 -16 75 -127 c295 -499 543 -803 692
-850 47 -15 55 -15 85 -1 17 9 54 35 80 58 26 23 49 41 51 39 1 -2 13 -53 25
-114 84 -409 257 -1109 375 -1515 103 -356 99 -345 124 -348 13 -2 25 3 28 12
3 9 -8 141 -25 293 -17 153 -34 307 -37 343 -3 36 -18 184 -34 330 -16 146
-27 266 -26 267 9 10 251 -759 301 -956 10 -38 44 -113 82 -180 154 -271 244
-434 241 -436 -6 -6 -199 -56 -333 -86 -161 -36 -221 -35 -338 6 -214 75 -456
294 -676 615 l-51 74 164 83 c185 94 206 114 214 207 4 48 -1 62 -85 226 -84
167 -90 176 -133 197 -74 38 -105 32 -292 -57 -92 -44 -170 -80 -173 -80 -9 0
-289 607 -336 728 -8 21 0 26 130 92 145 72 173 96 192 160 17 56 7 88 -80
266 -90 186 -114 212 -203 221 -49 4 -61 1 -166 -51 -63 -31 -118 -53 -124
-50 -19 12 -358 732 -358 760 0 2 53 31 119 63 69 35 129 72 144 90 28 34 42
95 32 143 -8 33 -165 359 -186 385 -22 26 -87 53 -127 53 -27 0 -74 -17 -147
-52 -104 -49 -109 -50 -122 -32 -23 31 -180 346 -250 504 -77 172 -344 812
-341 815 2 1 59 30 127 64 68 34 165 88 215 120 88 55 91 58 89 92 -2 18 -25
79 -52 134 -51 104 -186 315 -201 315 -5 0 -25 -11 -45 -24 -64 -44 -240 -81
-350 -74 l-50 3 -28 70 c-48 117 -134 382 -172 530 -32 121 -85 399 -85 441 0
10 18 5 68 -20 37 -18 131 -59 209 -90 140 -56 143 -57 174 -41 57 30 115 93
145 158 26 56 29 72 29 167 0 72 -6 123 -18 162 -20 65 -6 55 -314 215 -195
101 -250 140 -277 197 -23 48 -21 243 4 486 19 184 65 498 73 507 2 2 31 -29
63 -69 104 -129 224 -256 270 -287 84 -55 166 -50 224 15 57 65 107 190 131
329 l11 64 -72 67 c-41 39 -101 112 -142 173 -110 165 -228 422 -228 498 0 43
135 289 226 414 66 90 179 204 248 251 141 97 232 101 426 19z m773 -1641 l64
-40 12 -112 c7 -62 14 -135 17 -163 4 -51 21 -203 29 -265 5 -42 -31 70 -120
370 -36 124 -68 231 -70 238 -6 18 0 16 68 -28z m442 -3018 c3 -31 23 -169 45
-307 21 -137 49 -315 61 -395 12 -80 43 -273 69 -430 26 -157 46 -286 45 -288
-2 -2 -61 70 -131 160 -70 90 -202 255 -292 367 l-164 205 5 75 c8 129 77 313
240 640 l92 184 11 -77 c7 -42 15 -102 19 -134z m1022 -4834 c-3 -8 -6 -5 -6
6 -1 11 2 17 5 13 3 -3 4 -12 1 -19z m2556 -5345 c96 -149 219 -323 299 -425
38 -49 66 -88 62 -88 -13 0 -289 83 -296 89 -4 3 -25 71 -47 151 -73 266 -110
415 -98 397 7 -10 43 -66 80 -124z"/>
<path d="M30915 21293 c9 -348 -1 -314 105 -366 58 -28 76 -32 160 -34 95 -2
184 12 228 36 l22 12 0 329 0 330 -261 0 -261 0 7 -307z"/>
<path d="M32960 21196 l0 -404 33 -11 c164 -52 382 -33 498 43 l37 25 6 308
c4 169 9 338 12 376 l6 67 -296 0 -296 0 0 -404z"/>
<path d="M35366 21583 c-2 -10 -6 -193 -8 -407 l-3 -388 47 -19 c26 -10 84
-26 130 -35 69 -14 95 -15 156 -6 40 7 90 21 110 31 l38 20 13 153 c7 84 15
182 17 218 3 36 11 138 19 226 8 89 15 176 15 193 l0 31 -264 0 c-244 0 -265
-1 -270 -17z"/>
<path d="M37210 21592 c0 -5 -11 -164 -25 -353 -28 -388 -33 -352 53 -390 132
-58 294 -65 387 -17 96 49 89 32 124 328 18 146 34 294 37 330 3 36 7 75 9 87
l5 22 -295 1 c-162 0 -295 -3 -295 -8z"/>
<path d="M26650 20890 c-54 -10 -94 -35 -138 -85 -73 -83 -92 -200 -51 -310
11 -30 22 -82 23 -114 8 -192 195 -313 356 -231 50 25 105 91 124 148 20 56
20 154 1 207 -8 22 -15 72 -15 111 0 59 -5 81 -31 133 -30 60 -82 111 -134
131 -34 12 -98 18 -135 10z m163 -77 c141 -98 125 -349 -27 -422 -45 -22 -118
-27 -159 -12 -14 5 -41 24 -61 42 -95 83 -112 224 -40 335 66 101 189 126 287
57z"/>
<path d="M24826 17248 c-3 -13 -2 -25 2 -29 6 -5 294 -50 422 -65 25 -3 192
-30 371 -59 179 -30 347 -57 375 -60 27 -4 171 -29 319 -56 149 -28 308 -57
355 -65 184 -32 700 -139 990 -204 787 -179 1340 -349 1670 -515 232 -116 937
-626 1153 -833 64 -62 68 -65 92 -52 23 12 24 16 12 34 -68 105 -923 742
-1187 884 -426 229 -1375 490 -2685 737 -396 74 -389 73 -430 79 -16 3 -138
23 -270 45 -373 63 -804 130 -930 146 -27 4 -94 13 -147 21 -54 8 -100 14
-102 14 -2 0 -6 -10 -10 -22z"/>
<path d="M38210 16866 c-102 -51 -340 -180 -530 -286 -190 -106 -466 -260
-614 -342 -147 -82 -309 -176 -360 -210 -139 -93 -249 -212 -411 -443 -77
-110 -183 -259 -236 -332 -106 -145 -168 -258 -223 -406 -127 -340 -193 -902
-167 -1422 15 -282 17 -295 48 -295 l25 0 -9 198 c-18 440 -4 808 43 1047 76
391 156 603 303 805 39 52 112 154 163 227 l93 131 135 63 c890 411 1562 714
1797 810 l132 54 1 248 c0 136 -1 247 -2 247 -2 0 -86 -42 -188 -94z"/>
<path d="M23350 16925 c0 -28 63 -210 112 -325 170 -398 489 -878 830 -1250
204 -223 491 -487 617 -568 396 -254 1260 -440 2536 -546 916 -77 1479 -98
2440 -94 642 3 693 4 718 21 34 22 35 49 4 125 -95 232 -506 746 -919 1148
-303 295 -620 559 -772 643 -358 198 -932 361 -1796 510 -271 47 -932 138
-1167 161 -54 5 -253 25 -443 44 -540 55 -1061 93 -1780 131 -354 19 -380 19
-380 0z m1553 -1027 c-13 -50 -29 -148 -36 -216 l-12 -125 -115 120 c-63 66
-150 161 -193 211 l-78 92 223 3 c123 1 226 3 229 5 3 1 -5 -39 -18 -90z m793
73 c-3 -9 -23 -68 -45 -131 -58 -168 -75 -288 -68 -479 6 -162 24 -263 69
-399 14 -40 23 -72 20 -72 -2 0 -52 33 -110 72 -138 94 -364 275 -521 418
l-124 113 6 117 c6 112 37 302 58 356 l9 26 356 -3 c318 -2 355 -4 350 -18z
m736 -7 l36 -6 -48 -74 c-192 -295 -210 -682 -44 -1004 52 -102 155 -233 231
-295 38 -32 49 -45 36 -45 -49 0 -395 62 -448 81 -33 11 -142 61 -242 110
l-182 90 -30 73 c-117 280 -133 617 -45 898 15 45 37 107 50 137 l24 54 313
-7 c171 -4 328 -9 349 -12z m428 -59 c548 -76 994 -172 1250 -268 62 -24 65
-26 79 -73 10 -34 14 -101 15 -219 0 -157 -2 -177 -27 -260 -82 -268 -246
-463 -494 -587 -91 -45 -108 -51 -160 -49 -69 2 -298 24 -547 52 -178 20 -179
21 -236 59 -205 139 -349 355 -397 592 -21 105 -20 288 1 385 29 133 95 279
172 380 20 27 29 31 57 27 17 -2 147 -20 287 -39z m1607 -428 c216 -106 381
-201 390 -225 3 -7 0 -55 -7 -105 -34 -254 -156 -504 -341 -701 l-55 -59 -315
17 c-173 10 -341 21 -374 25 l-60 7 45 23 c120 62 273 203 353 323 55 84 114
212 138 303 18 65 22 110 23 240 1 88 -3 181 -7 208 -5 26 -6 47 -4 47 3 0 99
-46 214 -103z m586 -334 c67 -42 191 -121 276 -176 l153 -101 -5 -55 c-15
-137 -88 -331 -155 -411 l-29 -35 -374 8 c-205 4 -375 10 -377 12 -3 2 19 30
48 62 28 32 78 98 111 146 121 180 184 350 214 580 3 26 8 47 11 47 2 0 59
-34 127 -77z m702 -473 c172 -129 285 -225 285 -243 0 -7 -8 -22 -18 -35 -18
-23 -18 -23 -334 -25 l-317 -2 20 30 c63 94 139 302 139 382 0 60 6 57 225
-107z"/>
<path d="M27160 15624 c-64 -23 -126 -77 -157 -137 -36 -70 -38 -170 -4 -239
43 -89 150 -158 246 -158 95 0 201 66 248 155 31 57 31 183 0 241 -63 119
-211 180 -333 138z"/>
<path d="M38337 14326 c-80 -110 -139 -233 -145 -300 -4 -50 -2 -56 29 -90 29
-32 43 -38 102 -48 37 -6 70 -9 72 -6 3 3 4 122 3 264 l-3 259 -58 -79z"/>
<path d="M33385 12738 c-9 -13 -23 -47 -31 -75 l-15 -52 -47 7 c-87 13 -633 8
-675 -6 -78 -28 -112 -137 -111 -367 1 -149 14 -245 40 -297 37 -71 296 -136
671 -167 100 -8 126 -14 142 -30 62 -62 138 -63 197 -5 l34 35 0 489 0 490
-94 0 c-87 0 -96 -2 -111 -22z"/>
<path d="M35667 12753 c-4 -3 -7 -221 -7 -484 l0 -478 30 -35 c35 -40 88 -61
128 -51 15 3 44 20 64 36 35 27 47 31 155 40 398 34 635 96 675 179 37 78 51
354 23 484 -20 96 -44 137 -91 161 -36 19 -59 20 -339 20 -165 0 -321 -3 -346
-7 l-46 -7 -16 58 c-24 85 -32 91 -136 91 -48 0 -91 -3 -94 -7z"/>
<path d="M33380 10700 c-11 -11 -27 -46 -36 -78 l-16 -59 -42 8 c-130 26 -642
18 -696 -11 -31 -17 -59 -65 -77 -131 -22 -81 -24 -330 -4 -439 16 -91 46
-126 135 -159 107 -40 366 -83 576 -97 89 -5 109 -10 130 -29 38 -34 65 -45
111 -45 35 0 47 6 80 39 l39 39 -2 488 -3 489 -87 3 c-77 2 -90 0 -108 -18z"/>
<path d="M35677 10713 c-4 -3 -7 -224 -7 -490 l0 -483 33 -37 c29 -31 41 -37
89 -41 52 -4 58 -2 94 30 38 34 42 35 144 42 119 8 341 38 446 60 100 21 180
53 219 87 46 41 60 118 60 329 -1 213 -23 302 -88 345 -51 33 -559 45 -703 16
l-42 -8 -16 59 c-24 87 -39 98 -139 98 -46 0 -87 -3 -90 -7z"/>
<path d="M33287 8600 c-14 -16 -28 -44 -32 -62 -13 -68 -12 -66 -58 -57 -154
31 -656 17 -707 -19 -57 -41 -83 -144 -84 -332 -2 -225 16 -309 73 -349 45
-32 160 -69 286 -91 126 -23 358 -50 426 -50 34 0 51 -6 65 -21 57 -63 146
-65 201 -5 l33 36 0 490 0 490 -89 0 c-87 0 -90 -1 -114 -30z"/>
<path d="M35677 8583 c-4 -3 -7 -222 -7 -486 0 -469 0 -480 21 -508 47 -67
135 -79 194 -27 34 29 43 32 143 39 59 5 118 11 132 14 14 2 56 7 94 11 95 8
280 47 349 74 87 33 122 68 136 137 34 160 22 438 -23 525 -37 73 -48 76 -258
88 -161 9 -454 2 -519 -12 -7 -2 -19 19 -28 50 -9 29 -26 64 -38 78 -20 22
-29 24 -106 24 -46 0 -87 -3 -90 -7z"/>
<path d="M33253 5923 c-26 -3 -33 -9 -33 -27 l0 -24 183 -5 c140 -3 200 -9
259 -25 107 -29 140 -48 247 -147 52 -47 99 -84 104 -82 6 2 15 11 21 21 9 15
-1 29 -69 92 -133 124 -178 149 -320 179 -77 16 -330 28 -392 18z"/>
<path d="M35765 5903 c-27 -2 -141 -7 -253 -12 l-202 -8 -75 -37 c-85 -42
-162 -112 -220 -200 -38 -56 -39 -59 -20 -72 10 -8 22 -14 26 -14 5 0 24 25
44 55 53 79 120 141 191 176 65 32 96 36 452 54 l132 7 0 29 c0 18 -5 28 -12
27 -7 -1 -35 -3 -63 -5z"/>
<path d="M36045 2999 c-115 -13 -413 -38 -680 -55 -194 -14 -406 -17 -950 -18
-701 -1 -803 3 -1187 40 -139 13 -165 13 -236 0 -311 -59 -1099 -146 -1462
-161 -74 -3 -238 -10 -365 -15 -126 -5 -301 -10 -387 -10 l-158 0 0 -25 c0
-18 7 -26 24 -31 62 -15 997 24 1331 56 55 5 134 12 175 15 133 10 479 55 705
92 l220 36 185 -17 c102 -9 262 -21 355 -28 227 -17 1302 -17 1575 0 345 20
647 42 825 58 l170 15 105 -25 c317 -75 687 -126 995 -137 123 -5 798 -5 955
-1 152 5 160 7 160 44 0 26 -3 30 -22 25 -12 -3 -159 -11 -327 -18 -444 -17
-914 5 -1306 62 -233 33 -313 49 -452 85 -95 25 -131 27 -248 13z"/>
</g>
</svg>
